# xmcd CD database file
#
# Track frame offsets:
#	150
#	9548
#	18244
#	31005
#	44233
#	56820
#	70309
#	80072
#	93193
#	104514
#	116884
#	127616
#	140116
#	154474
#	167400
#	179964
#	194100
#	206886
#	218462
#	231093
#
# Disc length: 3251 seconds
#
# Revision: 0
# Processed by: cddbd v1.5.2PL0 Copyright (c) Steve Scherf et al.
# Submitted via: CDex 1.70beta2
#
DISCID=2b0cb114
DTITLE=Howard McGhee - Bebop Story Vol 3 1948-49
DYEAR=2008
DGENRE=Jazz
TTITLE0=Merry Lee
TTITLE1=Short Life
TTITLE2=It's TheTalk Of The Town
TTITLE3=BassC Jam
TTITLE4=Down Home
TTITLE5=Sweet And Lovely
TTITLE6=Fiesta
TTITLE7=I'm In The Moode For Love
TTITLE8=Flip Lip
TTITLE9=Belle From Bunnycock
TTITLE10=The Last Word
TTITLE11=The Man I Love
TTITLE12=Lean On Me
TTITLE13=Recognition
TTITLE14=Lo-Flame
TTITLE15=Fuguetta
TTITLE16=FlLuid Drive
TTITLE17=Meciendo
TTITLE18=Donnellon Square
TTITLE19=I'll Remember April
EXTD=YEAR: 2008
EXTT0=
EXTT1=
EXTT2=
EXTT3=
EXTT4=
EXTT5=
EXTT6=
EXTT7=
EXTT8=
EXTT9=
EXTT10=
EXTT11=
EXTT12=
EXTT13=
EXTT14=
EXTT15=
EXTT16=
EXTT17=
EXTT18=
EXTT19=
PLAYORDER=
